<svg width="554" height="188" viewBox="0 0 554 188" fill="none" xmlns="http://www.w3.org/2000/svg">
<path d="M26.3757 80.2183L25.6656 88.7805L29.2163 83.7859L96.4446 12.1961H129.112L58.0961 87.1156L132.426 184.868H100.469L39.632 103.051L26.3757 116.132V184.868H0.810059V12.1961H26.3757V80.2183Z" fill="black"/>
<path d="M160.474 85.2129L162.604 108.046L161.657 104.954C164.971 97.8184 170.1 92.1103 177.044 87.8291C183.988 83.3895 192.194 81.1696 201.663 81.1696C210.974 81.1696 218.628 83.9444 224.624 89.494C230.779 95.0436 233.935 102.258 234.093 111.137V184.868H209.711V119.7C209.553 114.626 208.054 110.503 205.214 107.332C202.373 104.002 197.954 102.258 191.957 102.1C186.592 102.1 181.699 103.764 177.281 107.094C172.862 110.265 169.39 114.626 166.865 120.175C164.34 125.725 163.078 132.147 163.078 139.44V184.868H138.695V85.2129H160.474Z" fill="black"/>
<path d="M244.376 133.97C244.376 123.981 246.743 115.022 251.478 107.094C256.212 99.0076 262.761 92.6652 271.125 88.067C279.489 83.4688 289.037 81.1696 299.768 81.1696C310.657 81.1696 320.205 83.4688 328.411 88.067C336.618 92.6652 342.93 99.0076 347.349 107.094C351.925 115.022 354.214 123.981 354.214 133.97C354.214 143.959 351.925 152.997 347.349 161.084C342.93 169.17 336.618 175.592 328.411 180.349C320.205 184.947 310.578 187.246 299.532 187.246C288.958 187.246 279.489 185.106 271.125 180.824C262.919 176.543 256.37 170.439 251.478 162.511C246.743 154.424 244.376 144.911 244.376 133.97ZM268.995 134.208C268.995 140.392 270.336 146.021 273.019 151.095C275.702 156.01 279.332 159.974 283.908 162.987C288.485 165.841 293.614 167.268 299.295 167.268C305.134 167.268 310.342 165.841 314.918 162.987C319.495 159.974 323.046 156.01 325.571 151.095C328.253 146.021 329.595 140.392 329.595 134.208C329.595 128.024 328.253 122.474 325.571 117.559C323.046 112.644 319.495 108.68 314.918 105.667C310.342 102.655 305.134 101.148 299.295 101.148C293.456 101.148 288.248 102.655 283.671 105.667C279.095 108.68 275.465 112.723 272.782 117.797C270.257 122.712 268.995 128.183 268.995 134.208Z" fill="black"/>
<path d="M450.039 175.592C445.62 179.239 440.254 182.093 433.942 184.154C427.787 186.216 421.553 187.246 415.241 187.246C404.352 187.246 394.725 185.106 386.361 180.824C378.155 176.543 371.763 170.518 367.187 162.749C362.61 154.979 360.322 145.703 360.322 134.921C360.322 124.298 362.768 115.101 367.66 107.332C372.553 99.404 379.023 93.3787 387.071 89.2562C395.12 84.9751 403.642 82.8345 412.637 82.8345C420.843 82.8345 428.103 83.9444 434.415 86.1643C440.728 88.3841 446.172 91.476 450.749 95.44L438.676 111.375C435.993 109.155 432.6 107.173 428.497 105.429C424.552 103.685 419.975 102.813 414.767 102.813C409.244 102.813 404.194 104.24 399.617 107.094C395.041 109.79 391.411 113.595 388.728 118.51C386.046 123.267 384.704 128.738 384.704 134.921C384.704 140.788 386.046 146.258 388.728 151.332C391.569 156.248 395.435 160.132 400.328 162.987C405.22 165.841 410.822 167.268 417.135 167.268C421.238 167.268 425.025 166.713 428.497 165.603C431.969 164.334 435.046 162.59 437.729 160.37L450.039 175.592Z" fill="black"/>
<path d="M459.467 184.868V0.0662842H483.849V184.868H459.467ZM507.994 118.273L553.444 184.868H525.038L491.898 132.305L507.994 118.273ZM476.274 154.186L473.907 130.64L534.034 83.0723L548.947 96.1535L476.274 154.186Z" fill="black"/>
<path d="M504.018 0.741188H517.738V3.63764H512.323V21.157H509.29V3.63764H504.018V0.741188Z" fill="black"/>
<path d="M520.318 21.157V0.0662842H520.347L531.289 15.4484L529.985 15.1672L540.87 0.0662842H540.927V21.157H537.922V6.84343L538.12 8.39008L530.523 19.0479H530.466L522.728 8.39008L523.238 6.98403V21.157H520.318Z" fill="black"/>
</svg>
